<?xml version="1.0" standalone="no"?>
<!DOCTYPE svg PUBLIC "-//W3C//DTD SVG 20010904//EN"
 "http://www.w3.org/TR/2001/REC-SVG-20010904/DTD/svg10.dtd">
<svg version="1.0" xmlns="http://www.w3.org/2000/svg"
 width="500.000000pt" height="500.000000pt" viewBox="0 0 500.000000 500.000000"
 preserveAspectRatio="xMidYMid meet">

<g transform="translate(0.000000,500.000000) scale(0.100000,-0.100000)"
fill="#000000" stroke="none">
<path d="M1833 4093 c428 -2 1126 -2 1550 0 425 1 75 2 -778 2 -852 0 -1200
-1 -772 -2z"/>
<path d="M1025 4080 c-3 -6 1 -7 9 -4 18 7 21 14 7 14 -6 0 -13 -4 -16 -10z"/>
<path d="M966 4020 c-41 -57 -42 -69 -15 -125 21 -42 20 -33 -1 26 -7 20 -10
44 -7 53 6 15 140 16 1669 14 1654 -3 1663 -3 1666 -23 3 -25 -372 -992 -395
-1017 -15 -17 -78 -18 -1271 -18 -1113 0 -1257 2 -1272 15 -10 9 -59 124 -110
255 -51 132 -95 238 -97 236 -4 -4 160 -432 183 -477 7 -15 21 -29 29 -33 9
-3 192 -6 406 -6 380 0 389 0 389 -20 0 -10 9 -44 21 -75 29 -77 102 -155 179
-189 33 -15 60 -30 60 -34 0 -4 -58 -6 -129 -4 -134 4 -171 -4 -171 -36 0 -13
3 -12 16 6 14 21 22 22 139 22 121 0 124 -1 144 -26 14 -18 33 -27 63 -31 24
-3 49 -13 57 -22 12 -15 13 -14 7 2 -3 10 -6 21 -6 23 0 2 -18 4 -39 4 -58 0
-71 19 -71 99 0 39 5 72 12 79 17 17 259 17 276 0 16 -16 16 -150 0 -168 -11
-12 -10 -12 5 -1 16 13 17 9 17 -56 0 -66 10 -93 35 -93 5 0 2 5 -7 11 -26 15
-26 163 0 178 9 6 12 11 6 11 -5 0 -15 -5 -22 -12 -9 -9 -12 -8 -12 5 0 10 8
17 18 17 40 0 139 58 184 109 45 50 88 139 88 181 0 20 9 20 429 20 l429 0
-24 -57 c-13 -32 -23 -74 -23 -93 1 -30 2 -29 10 14 19 118 108 240 215 295
33 16 55 30 51 31 -15 0 -104 -49 -136 -75 -17 -15 -31 -25 -31 -22 0 3 45
121 101 263 201 516 259 668 259 684 0 9 -15 32 -33 51 -17 20 -26 28 -19 19
6 -9 12 -20 12 -23 0 -4 -738 -7 -1640 -7 -902 0 -1640 3 -1640 6 0 3 9 19 21
35 11 16 18 29 16 29 -3 0 -21 -23 -41 -50z m1884 -1169 c0 -68 -10 -71 -270
-71 -260 0 -270 3 -270 71 l0 39 270 0 270 0 0 -39z"/>
<path d="M1010 3928 c0 -7 76 -215 169 -463 l168 -450 1259 -3 1259 -2 167
447 c92 247 170 456 173 466 7 16 -73 17 -1594 17 -1274 0 -1601 -3 -1601 -12z
m2756 -75 c-10 -39 -235 -753 -246 -780 l-10 -23 -903 0 -904 0 -52 168 c-29
92 -86 272 -127 401 -41 129 -74 240 -74 247 0 12 190 14 1161 14 l1161 0 -6
-27z"/>
<path d="M1520 3758 c0 -7 47 -164 103 -348 l103 -335 884 0 884 0 12 40 c6
22 53 176 103 342 50 166 91 304 91 307 0 3 -490 6 -1090 6 -865 0 -1090 -3
-1090 -12z m450 -43 c0 -16 -362 -13 -368 3 -3 10 35 12 182 10 116 -2 186 -7
186 -13z m170 0 c0 -10 -10 -15 -30 -15 -20 0 -30 5 -30 15 0 10 10 15 30 15
20 0 30 -5 30 -15z m537 1 c4 -3 -98 -6 -225 -6 -136 0 -232 4 -232 9 0 10
447 7 457 -3z m607 5 c11 -18 -29 -21 -259 -21 -212 0 -257 4 -238 24 10 10
491 7 497 -3z m-1304 -71 c0 -6 -50 -10 -129 -10 -76 0 -132 4 -136 10 -4 6
42 10 129 10 84 0 136 -4 136 -10z m170 0 c0 -5 -13 -10 -30 -10 -16 0 -30 5
-30 10 0 6 14 10 30 10 17 0 30 -4 30 -10z m1170 0 c0 -6 -122 -10 -345 -10
-223 0 -345 4 -345 10 0 6 122 10 345 10 223 0 345 -4 345 -10z m300 0 c0 -6
-40 -10 -100 -10 -60 0 -100 4 -100 10 0 6 40 10 100 10 60 0 100 -4 100 -10z
m-1620 -60 c0 -6 -67 -10 -180 -10 -113 0 -180 4 -180 10 0 6 67 10 180 10
113 0 180 -4 180 -10z m160 0 c0 -5 -13 -10 -30 -10 -16 0 -30 5 -30 10 0 6
14 10 30 10 17 0 30 -4 30 -10z m1440 0 c0 -7 -153 -10 -440 -10 -287 0 -440
3 -440 10 0 7 153 10 440 10 287 0 440 -3 440 -10z m-1590 -60 c0 -6 -58 -10
-155 -10 -97 0 -155 4 -155 10 0 6 58 10 155 10 97 0 155 -4 155 -10z m160 0
c0 -5 -13 -10 -30 -10 -16 0 -30 5 -30 10 0 6 14 10 30 10 17 0 30 -4 30 -10z
m390 0 c0 -5 -21 -10 -46 -10 -27 0 -43 4 -39 10 3 6 24 10 46 10 21 0 39 -4
39 -10z m1030 0 c0 -7 -173 -10 -500 -10 -327 0 -500 3 -500 10 0 7 173 10
500 10 327 0 500 -3 500 -10z m-1575 -60 c4 -7 -53 -10 -164 -10 -102 0 -172
4 -176 10 -4 7 53 10 164 10 102 0 172 -4 176 -10z m160 0 c4 -6 -6 -10 -24
-10 -16 0 -33 5 -36 10 -4 6 6 10 24 10 16 0 33 -4 36 -10z m445 0 c0 -6 -68
-10 -184 -10 -113 0 -187 4 -191 10 -4 7 60 10 184 10 121 0 191 -4 191 -10z
m560 0 c0 -6 -78 -10 -215 -10 -137 0 -215 4 -215 10 0 6 78 10 215 10 137 0
215 -4 215 -10z m-1150 -60 c0 -6 -41 -10 -104 -10 -59 0 -108 4 -111 10 -4 6
33 10 104 10 67 0 111 -4 111 -10z m150 0 c0 -5 -11 -10 -24 -10 -14 0 -28 5
-31 10 -4 6 7 10 24 10 17 0 31 -4 31 -10z m865 0 c-4 -6 -147 -10 -395 -10
-248 0 -391 4 -395 10 -4 7 130 10 395 10 265 0 399 -3 395 -10z m153 3 c-16
-2 -40 -2 -55 0 -16 2 -3 4 27 4 30 0 43 -2 28 -4z m-1158 -53 c0 -6 -63 -10
-170 -10 -107 0 -170 4 -170 10 0 6 63 10 170 10 107 0 170 -4 170 -10z m150
0 c0 -5 -13 -10 -30 -10 -16 0 -30 5 -30 10 0 6 14 10 30 10 17 0 30 -4 30
-10z m290 0 c0 -6 -43 -10 -110 -10 -67 0 -110 4 -110 10 0 6 43 10 110 10 67
0 110 -4 110 -10z m810 0 c0 -6 -130 -10 -371 -10 -244 0 -368 3 -364 10 4 6
138 10 371 10 236 0 364 -4 364 -10z m160 0 c11 -7 3 -10 -28 -10 -26 0 -41 4
-37 10 8 13 45 13 65 0z m-1405 -50 c4 -6 -43 -10 -135 -10 -92 0 -139 4 -135
10 4 6 60 10 135 10 75 0 131 -4 135 -10z m1145 0 c0 -6 -135 -10 -386 -10
-254 0 -383 3 -379 10 4 6 143 10 386 10 246 0 379 -4 379 -10z m-1002 -7
c-10 -2 -26 -2 -35 0 -10 3 -2 5 17 5 19 0 27 -2 18 -5z m135 0 c-13 -2 -33
-2 -45 0 -13 2 -3 4 22 4 25 0 35 -2 23 -4z m-330 -50 c-40 -2 -106 -2 -145 0
-40 1 -8 3 72 3 80 0 112 -2 73 -3z m200 0 c-7 -2 -21 -2 -30 0 -10 3 -4 5 12
5 17 0 24 -2 18 -5z m615 0 c-26 -2 -71 -2 -100 0 -29 2 -8 3 47 3 55 0 79 -1
53 -3z m565 0 c-79 -2 -207 -2 -285 0 -79 1 -15 3 142 3 157 0 221 -2 143 -3z
m-1368 -43 c58 -6 44 -7 -83 -8 -100 -1 -151 1 -147 8 7 11 123 11 230 0z
m1484 -6 c2 -2 -218 -3 -490 -2 l-494 3 335 5 c312 5 640 2 649 -6z m-1291 -1
c-10 -2 -26 -2 -35 0 -10 3 -2 5 17 5 19 0 27 -2 18 -5z m235 0 c-13 -2 -33
-2 -45 0 -13 2 -3 4 22 4 25 0 35 -2 23 -4z m-218 -43 c4 -6 -7 -10 -24 -10
-17 0 -31 5 -31 10 0 6 11 10 24 10 14 0 28 -4 31 -10z m690 0 c4 -7 -102 -10
-309 -10 -204 0 -316 4 -316 10 0 6 110 10 309 10 196 0 312 -4 316 -10z
m-877 -7 c-26 -2 -71 -2 -100 0 -29 2 -8 3 47 3 55 0 79 -1 53 -3z m1000 0
c-10 -2 -28 -2 -40 0 -13 2 -5 4 17 4 22 1 32 -1 23 -4z m-948 -43 c0 -6 -56
-10 -149 -10 -89 0 -152 4 -156 10 -4 7 48 10 149 10 97 0 156 -4 156 -10z
m140 0 c0 -5 -11 -10 -25 -10 -14 0 -25 5 -25 10 0 6 11 10 25 10 14 0 25 -4
25 -10z m1010 0 c0 -7 -163 -10 -469 -10 -303 0 -472 4 -476 10 -4 7 155 10
469 10 311 0 476 -3 476 -10z"/>
<path d="M970 3845 c0 -5 5 -17 10 -25 5 -8 10 -10 10 -5 0 6 -5 17 -10 25 -5
8 -10 11 -10 5z"/>
<path d="M990 3795 c0 -5 5 -17 10 -25 5 -8 10 -10 10 -5 0 6 -5 17 -10 25 -5
8 -10 11 -10 5z"/>
<path d="M1016 3730 c3 -14 11 -32 16 -40 6 -10 7 -7 2 10 -3 14 -11 32 -16
40 -6 10 -7 7 -2 -10z"/>
<path d="M1040 3665 c0 -5 5 -17 10 -25 5 -8 10 -10 10 -5 0 6 -5 17 -10 25
-5 8 -10 11 -10 5z"/>
<path d="M1060 3615 c0 -5 5 -17 10 -25 5 -8 10 -10 10 -5 0 6 -5 17 -10 25
-5 8 -10 11 -10 5z"/>
<path d="M1086 3550 c4 -14 15 -43 25 -65 11 -22 16 -29 13 -15 -4 14 -15 43
-25 65 -11 22 -16 29 -13 15z"/>
<path d="M4125 3120 c-13 -6 -5 -7 25 -3 25 3 47 7 49 9 9 8 -55 2 -74 -6z"/>
<path d="M4308 3120 c24 -5 69 -21 99 -35 31 -14 58 -24 60 -22 8 9 -123 60
-161 63 l-41 3 43 -9z"/>
<path d="M4262 3060 c37 -4 77 -11 90 -15 20 -5 21 -4 5 5 -9 6 -50 13 -90 15
l-72 4 67 -9z"/>
<path d="M4168 3053 c7 -3 16 -2 19 1 4 3 -2 6 -13 5 -11 0 -14 -3 -6 -6z"/>
<path d="M4064 3011 c-68 -48 -132 -141 -122 -173 2 -6 9 7 16 28 15 50 64
109 121 145 25 16 40 29 34 29 -5 0 -28 -13 -49 -29z"/>
<path d="M4134 2966 c-193 -90 -189 -351 7 -436 76 -32 178 -26 244 15 90 56
133 151 114 252 -5 25 -11 48 -13 50 -2 3 -21 0 -42 -5 -22 -6 -51 -13 -66
-16 -24 -6 -27 -10 -22 -36 5 -25 2 -32 -27 -49 -22 -13 -51 -21 -79 -21 l-45
1 28 15 c46 25 31 64 -24 64 -28 0 -23 25 7 39 l26 12 -26 24 c-34 31 -33 47
5 84 l31 31 -34 0 c-18 0 -56 -11 -84 -24z"/>
<path d="M4570 2956 c0 -3 9 -21 21 -40 12 -20 27 -56 34 -80 l13 -44 -29 -4
c-27 -4 -29 -2 -44 50 -20 68 -32 61 -15 -8 14 -59 8 -122 -17 -177 -9 -21
-17 -46 -18 -56 -1 -10 -8 -24 -15 -30 -10 -9 -10 -6 0 13 12 23 12 24 -4 11
-9 -8 -14 -21 -11 -30 6 -19 -49 -77 -105 -110 -19 -12 -30 -21 -24 -21 23 0
108 70 146 121 37 51 60 64 111 68 23 1 21 -14 -8 -76 -30 -66 -105 -147 -170
-184 -27 -16 -45 -29 -39 -29 7 0 39 18 73 41 69 46 132 127 159 202 14 41 24
52 60 69 41 20 42 21 42 69 0 38 -4 51 -22 63 -12 9 -30 16 -39 16 -11 0 -22
14 -30 38 -20 63 -69 153 -69 128z m131 -186 c14 -8 19 -21 19 -54 0 -52 -9
-61 -85 -81 -74 -19 -104 -20 -87 -3 7 7 12 20 12 30 0 10 10 23 23 28 17 7
18 9 4 9 -17 1 -17 17 -1 69 4 15 87 16 115 2z"/>
<path d="M4623 2703 c9 -2 23 -2 30 0 6 3 -1 5 -18 5 -16 0 -22 -2 -12 -5z"/>
<path d="M4670 2696 c0 -2 9 -6 20 -9 11 -3 18 -1 14 4 -5 9 -34 13 -34 5z"/>
<path d="M4583 2643 c9 -2 25 -2 35 0 9 3 1 5 -18 5 -19 0 -27 -2 -17 -5z"/>
<path d="M3932 2740 c-1 -54 4 -96 13 -115 l14 -30 -6 29 c-4 22 -3 27 7 21 9
-6 9 -2 -1 16 -7 13 -16 56 -19 94 l-7 70 -1 -85z"/>
<path d="M3039 2743 c-13 -17 -13 -17 6 -3 11 8 22 16 24 17 2 2 0 3 -6 3 -6
0 -17 -8 -24 -17z"/>
<path d="M3308 2750 c20 -9 22 -16 22 -89 0 -89 -8 -101 -69 -101 -25 0 -36
-8 -56 -40 -14 -23 -30 -38 -35 -35 -6 3 -10 2 -10 -4 0 -28 22 -16 45 24 22
37 32 45 57 45 16 0 38 5 49 10 18 10 19 7 19 -55 0 -78 19 -105 75 -105 21 0
38 -6 45 -17 11 -17 11 -17 6 0 -3 10 -6 21 -6 23 0 2 -18 4 -39 4 -58 0 -71
18 -71 100 0 60 3 71 23 85 l22 17 -22 -7 c-22 -6 -23 -4 -23 62 0 70 -10 94
-39 92 -10 0 -7 -4 7 -9z"/>
<path d="M1792 2718 c-7 -7 -12 -17 -12 -22 0 -6 5 -3 11 7 9 15 27 17 144 17
117 0 135 -2 144 -17 6 -10 11 -13 11 -7 1 28 -27 34 -155 34 -89 0 -135 -4
-143 -12z"/>
<path d="M3022 2663 c-1 -40 -6 -63 -14 -63 -6 0 -4 -7 5 -18 12 -13 17 -37
17 -82 0 -45 -5 -69 -17 -82 -9 -10 -11 -18 -5 -18 20 0 32 37 32 100 0 53 2
61 16 56 9 -3 29 -6 44 -6 22 0 33 -7 44 -27 18 -33 21 -25 4 12 -9 20 -18 25
-48 25 -52 0 -68 22 -73 100 l-3 65 -2 -62z"/>
<path d="M2523 2692 c-21 -13 -20 -112 1 -112 11 0 13 7 7 28 -4 15 -4 40 0
56 9 34 8 38 -8 28z"/>
<path d="M2586 2675 c4 -16 8 -31 9 -33 2 -2 -1 -17 -5 -33 -5 -16 -5 -29 0
-29 26 0 31 84 5 109 -15 15 -16 14 -9 -14z"/>
<path d="M3822 2660 c0 -19 2 -27 5 -17 2 9 2 25 0 35 -3 9 -5 1 -5 -18z"/>
<path d="M1890 2625 c0 -30 3 -55 8 -55 4 0 7 25 7 55 0 30 -3 55 -7 55 -5 0
-8 -25 -8 -55z"/>
<path d="M1965 2625 c0 -37 4 -55 13 -55 8 0 12 18 12 55 0 37 -4 55 -12 55
-9 0 -13 -18 -13 -55z"/>
<path d="M3181 2624 c0 -11 3 -14 6 -6 3 7 2 16 -1 19 -3 4 -6 -2 -5 -13z"/>
<path d="M3830 2610 c0 -8 13 -43 30 -78 37 -80 110 -151 197 -193 59 -30 76
-33 162 -35 l96 -2 -95 7 c-113 9 -185 37 -255 102 -59 54 -83 88 -111 158
-13 31 -24 49 -24 41z"/>
<path d="M1466 2588 c-11 -15 -15 -42 -14 -83 l1 -60 6 68 c5 52 11 72 25 83
11 8 15 14 8 14 -6 0 -18 -10 -26 -22z"/>
<path d="M1738 2600 c20 -9 22 -16 22 -88 0 -48 -5 -83 -12 -92 -11 -12 -10
-12 5 -1 13 10 17 28 17 79 l0 66 20 -22 c14 -14 33 -22 55 -22 31 0 37 -5 59
-47 l24 -48 28 47 c26 43 33 47 66 48 36 0 68 20 68 43 0 6 -7 1 -16 -11 -11
-16 -25 -22 -54 -22 -35 0 -42 -4 -62 -40 -13 -22 -26 -40 -29 -40 -3 0 -14
18 -24 40 -16 36 -22 40 -55 40 -31 0 -42 6 -69 40 -17 22 -40 40 -49 39 -12
0 -11 -3 6 -9z"/>
<path d="M2823 2603 c31 -2 83 -2 115 0 31 2 5 3 -58 3 -63 0 -89 -1 -57 -3z"/>
<path d="M3610 2603 c25 -10 30 -25 30 -100 0 -80 -10 -93 -69 -93 -25 0 -36
-8 -58 -41 -25 -38 -28 -39 -40 -23 -7 10 -13 13 -13 8 0 -6 6 -18 13 -28 13
-17 16 -15 41 28 23 40 31 46 59 46 18 0 43 7 55 16 19 13 22 24 22 93 0 78
-9 102 -39 100 -14 0 -14 -1 -1 -6z"/>
<path d="M3970 2565 c0 -14 88 -98 114 -111 17 -8 22 -9 11 -2 -11 7 -44 37
-72 65 -29 29 -53 50 -53 48z"/>
<path d="M1631 2542 c-5 -10 -6 -32 -1 -52 l8 -35 1 33 c1 18 6 32 14 32 8 0
7 4 -3 10 -10 6 -11 10 -2 10 6 0 12 5 12 10 0 16 -19 11 -29 -8z"/>
<path d="M2807 2530 c-9 -11 -12 -20 -7 -20 6 0 11 -15 11 -32 l2 -33 4 30 c3
16 10 33 16 37 9 6 8 8 -2 8 -11 0 -11 3 -1 15 7 8 8 15 3 15 -5 0 -16 -9 -26
-20z"/>
<path d="M4045 2535 c29 -25 117 -65 140 -64 11 0 1 6 -22 14 -23 7 -64 25
-90 39 -26 15 -39 20 -28 11z"/>
<path d="M2210 2495 c0 -25 5 -45 10 -45 6 0 10 20 10 45 0 25 -4 45 -10 45
-5 0 -10 -20 -10 -45z"/>
<path d="M2584 2498 c-25 -39 -27 -41 -40 -23 -8 10 -14 14 -14 9 0 -6 6 -19
14 -29 12 -17 15 -15 40 28 23 39 32 46 64 50 l37 4 -37 1 c-34 2 -40 -2 -64
-40z"/>
<path d="M1593 2495 c0 -22 2 -30 4 -17 2 12 2 30 0 40 -3 9 -5 -1 -4 -23z"/>
<path d="M3483 2523 c9 -2 23 -2 30 0 6 3 -1 5 -18 5 -16 0 -22 -2 -12 -5z"/>
<path d="M2147 2512 c-13 -3 -17 -11 -15 -30 2 -22 8 -27 33 -29 18 -1 22 1
10 4 -34 9 -41 23 -12 23 16 0 27 5 27 14 0 16 -18 24 -43 18z m26 -19 c-7 -2
-19 -2 -25 0 -7 3 -2 5 12 5 14 0 19 -2 13 -5z"/>
<path d="M2257 2509 c-23 -13 -21 -25 6 -34 l22 -7 -25 -8 c-24 -9 -24 -9 4
-7 36 2 45 23 14 33 -21 6 -22 7 -4 14 11 3 15 9 10 12 -5 4 -17 2 -27 -3z"/>
<path d="M2325 2506 c-27 -20 -15 -51 20 -53 20 -1 23 0 8 4 -31 6 -29 23 2
23 17 0 23 4 19 14 -8 21 -30 26 -49 12z m32 -12 c-3 -3 -12 -4 -19 -1 -8 3
-5 6 6 6 11 1 17 -2 13 -5z"/>
<path d="M2850 2501 c-7 -15 -6 -23 6 -35 19 -20 29 -20 48 0 19 19 20 26 4
42 -18 18 -46 14 -58 -7z m48 -14 c2 -12 -3 -17 -17 -17 -12 0 -21 6 -21 13 0
31 32 34 38 4z"/>
<path d="M2930 2491 c0 -17 5 -33 10 -36 6 -3 10 4 10 17 0 13 5 29 12 36 9 9
7 12 -10 12 -18 0 -22 -6 -22 -29z"/>
<path d="M3483 2493 c9 -2 23 -2 30 0 6 3 -1 5 -18 5 -16 0 -22 -2 -12 -5z"/>
<path d="M4355 2490 c-13 -6 -15 -9 -5 -9 8 0 22 4 30 9 18 12 2 12 -25 0z"/>
<path d="M1101 2415 c-40 -90 -112 -162 -203 -205 -66 -32 -68 -41 -2 -14 97
40 187 135 226 236 29 76 17 67 -21 -17z"/>
<path d="M4298 2473 c6 -2 18 -2 25 0 6 3 1 5 -13 5 -14 0 -19 -2 -12 -5z"/>
<path d="M4233 2463 c9 -2 23 -2 30 0 6 3 -1 5 -18 5 -16 0 -22 -2 -12 -5z"/>
<path d="M1460 2432 c0 -16 34 -32 70 -32 27 0 34 -6 51 -45 11 -25 22 -45 24
-45 2 0 16 20 31 45 24 36 35 45 64 48 l35 4 -37 1 c-34 2 -40 -2 -64 -40
l-27 -42 -20 42 c-19 37 -25 42 -56 42 -19 0 -43 7 -53 17 -10 9 -18 11 -18 5z"/>
<path d="M2101 2428 c-1 -22 28 -38 69 -38 27 0 34 -6 51 -45 11 -25 23 -45
27 -45 4 0 19 20 34 45 25 41 31 45 66 45 37 0 62 14 62 35 0 5 -5 2 -11 -7
-7 -13 -23 -18 -52 -18 -39 0 -44 -3 -71 -46 l-29 -46 -20 46 c-18 42 -22 46
-56 46 -40 0 -55 7 -64 30 -4 12 -6 12 -6 -2z"/>
<path d="M4130 2430 c8 -5 22 -9 30 -9 10 0 8 3 -5 9 -27 12 -43 12 -25 0z"/>
<path d="M4245 2420 l-70 -6 65 -2 c36 0 74 3 85 8 22 9 22 9 -80 0z"/>
<path d="M410 2400 c0 -20 102 -110 157 -137 53 -25 68 -28 163 -28 94 0 111
3 160 27 30 15 73 45 95 68 34 35 36 40 18 40 -11 0 -26 7 -33 15 -12 14 -15
13 -35 -5 -24 -22 -55 -26 -73 -8 -9 9 -17 7 -34 -9 -49 -44 -93 -53 -154 -31
-28 10 -37 8 -78 -16 -53 -31 -81 -28 -90 9 -4 16 -13 25 -27 25 -12 0 -27 12
-37 30 -17 29 -32 39 -32 20z"/>
<path d="M2843 2350 c12 -27 24 -49 27 -49 9 0 69 99 60 99 -4 0 -19 -19 -33
-42 l-25 -42 -21 42 c-29 58 -34 53 -8 -8z"/>
<path d="M370 2365 c0 -29 151 -165 184 -165 4 0 -19 18 -53 41 -34 23 -77 62
-96 87 -19 24 -35 41 -35 37z"/>
<path d="M4340 2320 c-21 -7 -21 -8 -5 -9 11 0 27 4 35 9 18 11 5 11 -30 0z"/>
<path d="M1457 2273 c-4 -3 -7 -224 -7 -490 l0 -483 110 0 110 0 0 -141 c0
-78 -5 -150 -11 -162 -10 -21 -10 -21 5 -3 13 17 16 54 15 225 0 197 -16 349
-32 308 -5 -14 -20 -17 -72 -17 l-65 0 0 55 0 54 73 3 72 3 2 35 c1 19 -1 27
-3 18 -5 -15 -17 -18 -75 -18 l-69 0 0 55 0 55 86 0 c78 0 85 -2 79 -17 -14
-35 -16 -57 -2 -28 8 17 26 45 41 63 15 17 23 32 17 32 -7 0 -11 21 -11 50 l0
50 55 0 c51 0 55 -2 46 -18 -5 -10 -17 -25 -26 -32 -9 -7 -21 -23 -26 -34 -6
-12 2 -7 18 12 16 18 38 32 50 32 12 0 24 4 27 9 4 5 -3 7 -14 4 -16 -4 -19
-2 -14 11 4 10 15 16 28 14 29 -4 32 -41 7 -77 -12 -16 -26 -51 -32 -78 -10
-42 -9 -58 5 -101 27 -80 43 -68 50 36 7 93 41 213 84 290 28 50 46 60 76 42
19 -12 20 -12 7 3 -21 26 -58 21 -75 -10 l-15 -28 -1 33 0 32 55 0 c66 0 67
-3 28 -111 -24 -67 -27 -90 -29 -239 -2 -94 0 -154 5 -140 l8 25 4 -25 c3 -14
8 21 12 77 4 57 14 124 22 150 19 61 18 78 0 36 -10 -23 -19 -31 -30 -27 -8 4
-14 14 -11 23 2 9 7 33 11 54 5 31 10 37 31 37 21 0 24 -4 19 -27 -2 -16 0
-13 6 7 24 82 52 107 86 79 13 -11 14 -28 9 -99 -7 -101 -16 -376 -9 -307 4
46 5 47 39 47 18 0 34 -3 34 -6 0 -4 -8 -29 -17 -56 -14 -38 -22 -48 -35 -44
-16 4 -18 -4 -18 -62 0 -38 4 -62 9 -57 10 11 36 92 46 142 4 18 17 48 30 67
l23 34 -33 -5 c-18 -3 -41 0 -51 6 -15 8 0 10 66 8 84 -2 85 -2 82 -27 -1 -14
-6 -65 -11 -115 -19 -196 -104 -385 -238 -530 -41 -44 -79 -89 -85 -100 -6
-11 7 0 28 25 21 25 62 70 90 100 54 57 151 216 161 261 7 34 39 39 268 39
216 0 228 -2 244 -45 18 -51 76 -116 183 -205 l98 -81 52 -164 c29 -90 54
-162 56 -160 2 2 -19 78 -48 168 l-52 164 -89 73 c-155 127 -190 175 -204 275
-3 28 -15 81 -26 118 -16 56 -18 71 -7 84 7 8 12 25 13 36 0 14 9 23 25 28 25
7 25 7 2 8 -19 1 -22 5 -17 24 4 12 11 26 16 31 5 6 9 35 9 65 l0 56 30 -50
c36 -60 37 -68 8 -59 -22 6 -22 6 2 -14 20 -16 26 -32 31 -88 4 -38 12 -89 19
-113 11 -36 11 -44 -1 -52 -11 -7 -11 -9 3 -9 12 0 21 13 29 43 21 80 17 97
-78 293 -50 104 -94 199 -98 211 -4 14 -11 20 -21 16 -11 -4 -14 6 -14 51 0
46 3 56 17 56 13 0 14 -3 5 -12 -7 -7 -12 -16 -12 -22 0 -5 6 -2 13 9 25 33
58 12 98 -63 37 -68 192 -284 208 -290 5 -2 20 12 33 30 22 31 24 39 18 118
-4 47 -8 76 -9 65 -2 -15 -7 -10 -22 20 -10 22 -19 33 -19 25 0 -8 9 -30 20
-48 25 -40 19 -52 -25 -52 -27 0 -38 6 -49 28 -8 15 -15 21 -16 14 0 -8 14
-27 30 -42 20 -19 26 -30 18 -33 -8 -3 -6 -6 5 -6 9 -1 17 6 17 14 0 21 16 19
24 -2 3 -10 8 -22 11 -28 3 -6 -14 -9 -46 -6 -65 4 -108 45 -109 104 0 34 2
37 29 37 16 0 31 -5 33 -10 2 -6 14 8 28 30 13 22 36 44 50 49 14 5 18 10 10
10 -9 1 -26 -6 -38 -15 -22 -15 -22 -15 -22 30 l0 46 55 0 c54 0 55 0 55 -30
0 -22 -5 -30 -17 -30 -10 -1 -2 -8 17 -16 19 -8 41 -21 50 -28 8 -8 35 -17 60
-21 24 -4 54 -14 66 -22 12 -8 24 -10 26 -6 3 4 3 2 2 -4 -2 -7 5 -18 15 -26
17 -11 19 -25 16 -130 -2 -64 0 -119 4 -121 12 -8 16 156 5 207 -5 24 -3 27
20 27 20 0 30 -9 47 -41 15 -30 18 -44 9 -49 -8 -5 -6 -9 6 -14 15 -6 16 -17
11 -94 -3 -48 -3 -77 0 -64 4 21 8 22 114 22 l110 0 -3 -52 -3 -53 -112 -3
-112 -3 -4 28 c-2 15 -4 -75 -4 -202 1 -143 3 -194 6 -135 l6 95 143 3 142 3
0 31 c0 30 1 31 19 14 11 -10 28 -16 38 -13 15 4 14 5 -4 6 -52 3 -53 13 -53
447 l0 403 26 20 c26 20 38 21 493 23 l466 3 -455 3 c-250 1 -465 0 -477 -3
-12 -3 -29 -12 -37 -21 -15 -14 -16 -12 -16 25 l0 41 -1153 0 c-635 0 -1157
-3 -1160 -7z m2301 -485 l2 -478 -140 0 c-132 0 -140 1 -140 19 0 16 8 20 38
23 l37 3 0 65 0 65 -40 5 c-23 3 11 7 80 10 l120 5 3 63 3 62 -111 0 c-67 0
-110 4 -110 10 0 6 14 10 30 10 l30 0 0 65 0 65 -33 0 c-27 0 -36 6 -59 45
-15 25 -34 45 -43 45 -9 0 -15 9 -15 26 0 24 2 25 53 22 l52 -3 0 -58 c0 -31
4 -57 8 -57 4 0 7 28 5 63 l-3 62 -62 3 c-62 3 -63 3 -63 -23 0 -32 -23 -29
-28 3 -3 16 -10 22 -30 22 l-27 0 3 70 4 70 -66 0 -66 0 0 -46 c0 -59 -24 -55
-28 4 l-3 42 -65 0 -64 0 0 -70 0 -70 -45 0 c-42 0 -45 -2 -45 -26 0 -22 -2
-25 -15 -14 -8 7 -15 18 -15 25 0 8 -6 16 -12 18 -7 3 15 6 50 6 l62 1 0 65 0
65 -65 0 -65 0 0 -52 c0 -38 -3 -49 -10 -38 -5 8 -10 32 -10 53 l0 37 -65 0
-65 0 0 -65 c0 -57 2 -65 19 -65 22 0 31 -26 31 -92 0 -26 4 -49 9 -53 6 -3 8
10 5 32 -5 37 -5 37 9 14 8 -14 13 -31 10 -38 -3 -7 -1 -13 3 -13 12 0 5 -112
-7 -124 -5 -6 -9 14 -9 52 l0 62 -70 0 -70 0 0 -65 0 -65 71 0 c44 0 68 -4 64
-10 -3 -5 -15 -10 -26 -10 -19 0 -20 -5 -17 -70 l3 -70 -200 2 c-110 0 -185 3
-167 5 l32 4 0 65 c0 57 -2 64 -19 64 -11 0 -23 5 -26 10 -4 6 17 10 54 10
l61 0 0 65 0 65 -65 0 -65 0 0 -60 c0 -33 -4 -60 -10 -60 -6 0 -10 27 -10 60
l0 60 -72 0 c-52 0 -69 3 -58 10 10 7 12 12 4 18 -7 4 -9 26 -5 57 6 49 7 50
43 53 l37 3 4 -63 3 -63 2 68 2 67 -47 1 c-27 1 -40 3 -30 6 14 4 17 16 17 69
l0 64 -65 0 -65 0 0 -54 c0 -69 -7 -86 -34 -85 -16 1 -17 2 -3 6 14 4 17 16
17 69 l0 64 -65 0 -65 0 0 -47 c0 -27 -5 -55 -10 -63 -7 -11 -10 3 -10 48 l0
62 -65 0 -65 0 0 -65 0 -64 68 -4 c44 -2 27 -4 -50 -5 l-117 -2 -3 -72 -3 -73
-102 -3 -103 -3 0 -64 0 -65 76 0 c47 0 73 -4 69 -10 -3 -5 -37 -10 -76 -10
l-69 0 0 -65 0 -65 75 0 75 0 0 -69 c0 -39 5 -73 10 -76 6 -3 10 -15 10 -26 0
-18 -8 -19 -105 -19 l-105 0 0 473 c0 261 3 477 6 480 4 4 520 6 1148 4 l1141
-2 3 -477z m-1828 217 l0 -55 -55 0 -55 0 0 55 0 55 55 0 55 0 0 -55z m300 0
c0 -55 -13 -73 -25 -36 -7 23 -37 35 -65 26 -17 -6 -20 -2 -20 29 l0 36 55 0
55 0 0 -55z m620 39 c0 -14 -3 -15 -17 -3 -10 7 -20 15 -22 16 -2 2 5 3 17 3
14 0 22 -6 22 -16z m150 -39 l0 -55 -55 0 -55 0 0 55 0 55 55 0 55 0 0 -55z
m310 0 l0 -55 -39 0 c-64 0 -71 6 -71 61 l0 49 55 0 55 0 0 -55z m-1233 -47
c-3 -8 -6 -5 -6 6 -1 11 2 17 5 13 3 -3 4 -12 1 -19z m-147 -45 c0 -24 -36
-103 -47 -103 -17 0 -16 10 2 34 8 11 15 32 15 48 0 18 5 28 15 28 8 0 15 -3
15 -7z m-42 -170 c-1 -48 -1 -48 -5 -8 -3 22 -10 43 -16 47 -8 5 -6 8 6 8 14
0 17 -8 15 -47z m160 -25 c-5 -40 -11 -74 -13 -77 -3 -2 -5 30 -5 72 0 57 3
77 13 77 11 0 12 -15 5 -72z m-185 -5 c7 -58 -8 -73 -18 -19 -6 29 1 84 10 74
1 -2 5 -27 8 -55z m467 2 l0 -55 -60 0 -60 0 0 55 0 55 60 0 60 0 0 -55z m150
0 l0 -55 -55 0 -55 0 0 55 0 55 55 0 55 0 0 -55z m310 0 l0 -55 -60 0 -60 0 0
55 0 55 60 0 60 0 0 -55z m300 21 c0 -50 -14 -52 -50 -6 l-32 40 41 0 c40 0
41 -1 41 -34z m460 -21 c0 -52 -1 -55 -25 -55 -24 0 -25 3 -25 55 0 52 1 55
25 55 24 0 25 -3 25 -55z m-1670 -75 c0 -5 -2 -10 -4 -10 -3 0 -8 5 -11 10 -3
6 -1 10 4 10 6 0 11 -4 11 -10z m530 -75 c0 -52 -1 -55 -25 -55 -21 0 -25 5
-25 29 0 42 17 81 35 81 12 0 15 -12 15 -55z m376 23 c-10 -52 -26 -58 -26
-10 0 32 4 42 16 42 13 0 15 -7 10 -32z m164 -60 c0 -10 -7 -18 -15 -18 -11 0
-15 12 -14 48 l1 47 13 -30 c8 -16 14 -38 15 -47z m-3 -34 c-3 -3 -12 -4 -19
-1 -8 3 -5 6 6 6 11 1 17 -2 13 -5z m-185 -26 c18 -14 41 -86 32 -100 -8 -12
-454 -10 -454 2 0 5 5 30 12 54 8 32 18 46 32 49 12 2 98 5 192 6 123 1 175
-2 186 -11z m783 -48 c0 -55 0 -55 -32 -58 l-33 -3 0 54 c0 62 5 69 40 65 23
-3 25 -7 25 -58z m-1331 35 c-4 -8 -8 -15 -10 -15 -2 0 -4 7 -4 15 0 8 4 15
10 15 5 0 7 -7 4 -15z m736 6 c0 -6 -4 -13 -10 -16 -5 -3 -10 1 -10 9 0 9 5
16 10 16 6 0 10 -4 10 -9z m-1283 -78 c-3 -10 -5 -2 -5 17 0 19 2 27 5 18 2
-10 2 -26 0 -35z m1133 -53 c0 -19 -7 -20 -239 -20 -234 0 -239 0 -234 20 5
19 14 20 239 20 227 0 234 -1 234 -20z"/>
<path d="M1500 2155 l0 -65 115 0 115 0 0 65 0 65 -115 0 -115 0 0 -65z m220
0 l0 -55 -105 0 -105 0 0 55 0 55 105 0 105 0 0 -55z"/>
<path d="M1742 2148 l3 -63 65 0 65 0 3 63 3 62 -71 0 -71 0 3 -62z m128 -3
l0 -55 -60 0 -60 0 0 55 0 55 60 0 60 0 0 -55z"/>
<path d="M1900 2145 l0 -65 65 0 65 0 0 65 0 65 -65 0 -65 0 0 -65z m120 0 l0
-55 -55 0 -55 0 0 55 0 55 55 0 55 0 0 -55z"/>
<path d="M2050 2145 l0 -65 65 0 65 0 0 65 0 65 -65 0 -65 0 0 -65z m120 0 l0
-55 -55 0 -55 0 0 55 0 55 55 0 55 0 0 -55z"/>
<path d="M2202 2148 l3 -63 65 0 65 0 3 63 3 62 -71 0 -71 0 3 -62z m128 -3
l0 -55 -60 0 -60 0 0 55 0 55 60 0 60 0 0 -55z"/>
<path d="M2360 2145 l0 -65 65 0 65 0 0 65 0 65 -65 0 -65 0 0 -65z m120 0 l0
-55 -55 0 -55 0 0 55 0 55 55 0 55 0 0 -55z"/>
<path d="M2510 2145 l0 -65 65 0 65 0 0 65 0 65 -65 0 -65 0 0 -65z m120 0 l0
-55 -55 0 -55 0 0 55 0 55 55 0 55 0 0 -55z"/>
<path d="M2662 2148 l3 -63 65 0 65 0 3 63 3 62 -71 0 -71 0 3 -62z m128 -3
l0 -55 -60 0 -60 0 0 55 0 55 60 0 60 0 0 -55z"/>
<path d="M2820 2145 l0 -65 65 0 65 0 0 65 0 65 -65 0 -65 0 0 -65z m120 0 l0
-55 -55 0 -55 0 0 55 0 55 55 0 55 0 0 -55z"/>
<path d="M2970 2145 l0 -65 65 0 65 0 0 65 0 65 -65 0 -65 0 0 -65z m120 0 l0
-55 -55 0 -55 0 0 55 0 55 55 0 55 0 0 -55z"/>
<path d="M3122 2148 l3 -63 65 0 65 0 3 63 3 62 -71 0 -71 0 3 -62z m128 -3
l0 -55 -60 0 -60 0 0 55 0 55 60 0 60 0 0 -55z"/>
<path d="M3280 2145 l0 -65 65 0 65 0 0 65 0 65 -65 0 -65 0 0 -65z m120 0 l0
-55 -55 0 -55 0 0 55 0 55 55 0 55 0 0 -55z"/>
<path d="M3430 2145 l0 -65 65 0 65 0 0 65 0 65 -65 0 -65 0 0 -65z m120 0 l0
-55 -55 0 -55 0 0 55 0 55 55 0 55 0 0 -55z"/>
<path d="M3582 2148 l3 -63 65 0 65 0 3 63 3 62 -71 0 -71 0 3 -62z m128 -3
l0 -55 -60 0 -60 0 0 55 0 55 60 0 60 0 0 -55z"/>
<path d="M1500 2005 l0 -65 65 0 65 0 0 65 0 65 -65 0 -65 0 0 -65z m120 0 l0
-55 -55 0 -55 0 0 55 0 55 55 0 55 0 0 -55z"/>
<path d="M1650 2005 l0 -65 65 0 65 0 0 65 0 65 -65 0 -65 0 0 -65z m120 0 l0
-55 -55 0 -55 0 0 55 0 55 55 0 55 0 0 -55z"/>
<path d="M2270 2005 l0 -65 65 0 65 0 0 65 0 65 -65 0 -65 0 0 -65z m120 0 l0
-55 -55 0 -55 0 0 55 0 55 55 0 55 0 0 -55z"/>
<path d="M2420 2005 l0 -65 65 0 65 0 0 65 0 65 -65 0 -65 0 0 -65z m120 0 l0
-55 -55 0 -55 0 0 55 0 55 55 0 55 0 0 -55z"/>
<path d="M2570 2005 l0 -65 65 0 65 0 0 65 0 65 -65 0 -65 0 0 -65z m120 0 l0
-55 -55 0 -55 0 0 55 0 55 55 0 55 0 0 -55z"/>
<path d="M3340 2005 l0 -65 65 0 65 0 0 65 0 65 -65 0 -65 0 0 -65z m120 0 l0
-55 -55 0 -55 0 0 55 0 55 55 0 55 0 0 -55z"/>
<path d="M3490 2005 l0 -65 115 0 116 0 -3 63 -3 62 -112 3 -113 3 0 -66z
m220 0 l0 -55 -105 0 -105 0 0 55 0 55 105 0 105 0 0 -55z"/>
<path d="M1502 1863 l3 -68 70 -3 c113 -5 116 -3 113 71 l-3 62 -93 3 -93 3 3
-68z m173 -3 l0 -55 -82 -3 -83 -3 0 61 0 61 83 -3 82 -3 0 -55z"/>
<path d="M2327 1923 c-10 -9 -9 -123 1 -123 4 0 7 26 7 57 l0 58 52 3 52 3 4
-63 3 -63 2 68 2 67 -58 0 c-32 0 -62 -3 -65 -7z"/>
<path d="M2482 1863 l2 -68 3 63 4 63 52 -3 52 -3 0 -58 c0 -31 4 -57 8 -57 4
0 7 28 5 63 l-3 62 -62 3 -63 3 2 -68z"/>
<path d="M2632 1863 l2 -68 3 63 4 62 54 0 54 0 4 -62 3 -63 2 68 2 67 -65 0
-65 0 2 -67z"/>
<path d="M3552 1863 l2 -68 3 63 4 63 72 -3 72 -3 3 -127 3 -128 -60 0 -60 0
-4 73 -3 72 -2 -77 -2 -78 70 0 71 0 -3 138 -3 137 -82 3 -83 3 2 -68z"/>
<path d="M2510 1715 l0 -65 65 0 65 0 0 65 0 65 -65 0 -65 0 0 -65z m120 0 l0
-55 -55 0 -55 0 0 55 0 55 55 0 55 0 0 -55z"/>
<path d="M2450 1565 l0 -65 65 0 65 0 0 65 0 65 -65 0 -65 0 0 -65z m120 0 l0
-55 -55 0 -55 0 0 55 0 55 55 0 55 0 0 -55z"/>
<path d="M2600 1565 l0 -65 65 0 65 0 0 65 0 65 -65 0 -65 0 0 -65z m120 0 l0
-55 -55 0 -55 0 0 55 0 55 55 0 55 0 0 -55z"/>
<path d="M1500 1420 l0 -70 65 0 65 0 0 70 0 70 -65 0 -65 0 0 -70z m120 0 l0
-60 -55 0 -55 0 0 60 0 60 55 0 55 0 0 -60z"/>
<path d="M3584 1477 c-3 -8 -4 -39 -2 -68 l3 -54 65 0 65 0 0 65 0 65 -63 3
c-47 2 -64 -1 -68 -11z m121 -57 l0 -55 -55 0 -55 0 -3 44 c-5 67 0 72 60 69
l53 -3 0 -55z"/>
<path d="M580 2190 c8 -5 22 -9 30 -9 10 0 8 3 -5 9 -27 12 -43 12 -25 0z"/>
<path d="M638 2173 c6 -2 18 -2 25 0 6 3 1 5 -13 5 -14 0 -19 -2 -12 -5z"/>
<path d="M798 2173 c6 -2 18 -2 25 0 6 3 1 5 -13 5 -14 0 -19 -2 -12 -5z"/>
<path d="M703 2163 c15 -2 37 -2 50 0 12 2 0 4 -28 4 -27 0 -38 -2 -22 -4z"/>
<path d="M4249 2141 c11 -7 15 -31 15 -90 1 -89 17 -125 36 -77 10 28 5 71
-12 93 -5 6 -10 28 -11 47 -2 29 -6 36 -22 36 -16 0 -17 -2 -6 -9z m44 -111
c8 -37 -2 -68 -14 -48 -11 17 -11 78 0 78 5 0 11 -13 14 -30z"/>
<path d="M4198 2133 c6 -2 18 -2 25 0 6 3 1 5 -13 5 -14 0 -19 -2 -12 -5z"/>
<path d="M4333 2127 c85 -27 140 -102 156 -213 6 -44 9 -50 10 -23 4 116 -98
252 -186 248 -10 0 -1 -6 20 -12z"/>
<path d="M4134 2111 c-52 -32 -105 -127 -103 -185 0 -11 7 4 15 34 19 71 49
115 99 145 22 14 36 25 30 25 -5 0 -24 -9 -41 -19z"/>
<path d="M1231 1965 c-42 -36 -60 -45 -90 -45 -57 0 -71 -22 -71 -108 0 -101
2 -102 159 -102 111 0 130 2 142 18 11 14 11 15 -1 5 -19 -18 -261 -18 -278
-1 -16 16 -16 150 0 166 7 7 30 12 51 12 31 0 48 8 85 41 l47 41 6 -33 c6 -33
6 -33 8 9 0 23 0 42 -2 42 -2 0 -27 -20 -56 -45z"/>
<path d="M2030 2001 c0 -6 -10 -16 -22 -21 -16 -6 -18 -9 -7 -9 19 -1 45 26
35 36 -3 3 -6 1 -6 -6z"/>
<path d="M2788 2003 c7 -3 16 -2 19 1 4 3 -2 6 -13 5 -11 0 -14 -3 -6 -6z"/>
<path d="M2751 1984 c0 -11 3 -14 6 -6 3 7 2 16 -1 19 -3 4 -6 -2 -5 -13z"/>
<path d="M4292 1913 c-2 -31 -4 -32 -49 -36 -27 -2 -10 -3 37 -4 47 0 71 2 53
4 -27 4 -32 9 -36 36 l-4 32 -1 -32z"/>
<path d="M2120 1926 c0 -2 11 -6 25 -8 14 -3 25 -1 25 3 0 5 -11 9 -25 9 -14
0 -25 -2 -25 -4z"/>
<path d="M1312 1911 c26 -4 51 -10 55 -15 4 -4 11 -40 14 -79 l6 -72 1 68 c2
84 -16 108 -80 106 l-43 -2 47 -6z"/>
<path d="M3242 1905 c0 -11 4 -33 8 -50 7 -27 8 -27 8 -5 0 14 -4 36 -8 50 -6
20 -8 21 -8 5z"/>
<path d="M4023 1830 c0 -41 2 -59 4 -39 3 31 9 38 36 47 l32 11 -32 -5 c-30
-5 -32 -3 -36 28 -2 18 -4 -1 -4 -42z"/>
<path d="M3310 1876 c0 -2 11 -6 25 -8 13 -3 22 -1 19 3 -5 9 -44 13 -44 5z"/>
<path d="M4153 1863 c9 -2 23 -2 30 0 6 3 -1 5 -18 5 -16 0 -22 -2 -12 -5z"/>
<path d="M4425 1853 c28 -8 56 -20 63 -25 8 -7 12 -7 12 0 0 11 -83 42 -109
41 -9 0 7 -7 34 -16z"/>
<path d="M1192 1830 c0 -19 2 -27 5 -17 2 9 2 25 0 35 -3 9 -5 1 -5 -18z"/>
<path d="M4108 1853 c7 -3 16 -2 19 1 4 3 -2 6 -13 5 -11 0 -14 -3 -6 -6z"/>
<path d="M1233 1823 c9 -2 25 -2 35 0 9 3 1 5 -18 5 -19 0 -27 -2 -17 -5z"/>
<path d="M2875 1820 c-3 -6 1 -7 9 -4 18 7 21 14 7 14 -6 0 -13 -4 -16 -10z"/>
<path d="M1933 1813 c9 -2 23 -2 30 0 6 3 -1 5 -18 5 -16 0 -22 -2 -12 -5z"/>
<path d="M3262 1763 c-2 -65 4 -93 20 -93 7 0 7 5 0 13 -6 7 -13 42 -15 77
l-3 65 -2 -62z"/>
<path d="M4403 1740 c0 -41 2 -58 4 -37 2 20 2 54 0 75 -2 20 -4 3 -4 -38z"/>
<path d="M1233 1793 c9 -2 25 -2 35 0 9 3 1 5 -18 5 -19 0 -27 -2 -17 -5z"/>
<path d="M4493 1760 c0 -25 2 -35 4 -22 2 12 2 32 0 45 -2 12 -4 2 -4 -23z"/>
<path d="M1730 1758 c0 -7 -3 -31 -7 -53 -6 -39 -5 -39 13 -24 10 9 26 19 34
23 8 3 3 4 -12 1 -26 -5 -27 -4 -21 30 3 19 3 35 -1 35 -3 0 -6 -6 -6 -12z"/>
<path d="M2093 1763 c9 -2 25 -2 35 0 9 3 1 5 -18 5 -19 0 -27 -2 -17 -5z"/>
<path d="M4032 1715 c0 -16 2 -22 5 -12 2 9 2 23 0 30 -3 6 -5 -1 -5 -18z"/>
<path d="M4482 1690 c0 -14 2 -19 5 -12 2 6 2 18 0 25 -3 6 -5 1 -5 -13z"/>
<path d="M4041 1664 c0 -11 3 -14 6 -6 3 7 2 16 -1 19 -3 4 -6 -2 -5 -13z"/>
<path d="M3257 1608 c6 -73 11 -83 12 -23 0 28 -3 56 -8 63 -5 8 -6 -8 -4 -40z"/>
<path d="M4471 1644 c0 -11 3 -14 6 -6 3 7 2 16 -1 19 -3 4 -6 -2 -5 -13z"/>
<path d="M1722 1615 c0 -16 2 -22 5 -12 2 9 2 23 0 30 -3 6 -5 -1 -5 -18z"/>
<path d="M2322 1624 c-27 -19 -30 -64 -4 -63 10 0 12 3 5 6 -21 8 -15 39 10
56 12 9 20 16 17 16 -3 1 -16 -6 -28 -15z"/>
<path d="M2858 1615 c-3 -14 -1 -25 3 -25 5 0 9 11 9 25 0 14 -2 25 -4 25 -2
0 -6 -11 -8 -25z"/>
<path d="M4051 1630 c0 -8 4 -22 9 -30 12 -18 12 -2 0 25 -6 13 -9 15 -9 5z"/>
<path d="M4456 1605 c-9 -26 -7 -32 5 -12 6 10 9 21 6 23 -2 3 -7 -2 -11 -11z"/>
<path d="M1640 1586 c0 -18 1 -19 20 -1 11 10 20 19 20 21 0 1 -9 2 -20 1 -13
-1 -20 -8 -20 -21z"/>
<path d="M3362 1575 c0 -16 2 -22 5 -12 2 9 2 23 0 30 -3 6 -5 -1 -5 -18z"/>
<path d="M1731 1564 c0 -11 3 -14 6 -6 3 7 2 16 -1 19 -3 4 -6 -2 -5 -13z"/>
<path d="M4070 1574 c0 -6 13 -31 30 -57 35 -55 103 -107 139 -106 25 1 25 1
-4 8 -50 12 -86 42 -127 105 -21 32 -38 55 -38 50z"/>
<path d="M4343 1524 c-17 -30 -27 -52 -22 -49 11 8 63 95 58 99 -2 2 -18 -21
-36 -50z"/>
<path d="M3070 1550 c6 -11 13 -20 16 -20 2 0 0 9 -6 20 -6 11 -13 20 -16 20
-2 0 0 -9 6 -20z"/>
<path d="M1741 1524 c0 -11 3 -14 6 -6 3 7 2 16 -1 19 -3 4 -6 -2 -5 -13z"/>
<path d="M4396 1494 c-15 -19 -42 -44 -60 -55 -17 -10 -25 -19 -19 -19 16 0
90 66 104 92 15 27 7 22 -25 -18z"/>
<path d="M1780 1479 c0 -13 5 -31 10 -39 7 -11 8 -5 4 20 -8 43 -14 51 -14 19z"/>
<path d="M1922 1455 c0 -16 2 -22 5 -12 2 9 2 23 0 30 -3 6 -5 -1 -5 -18z"/>
<path d="M2098 1455 c-3 -11 -9 -29 -13 -40 -3 -11 1 -7 10 8 9 16 15 33 12
40 -2 6 -6 3 -9 -8z"/>
<path d="M1690 1401 c0 -11 4 -22 9 -25 4 -3 6 6 3 19 -5 30 -12 33 -12 6z"/>
<path d="M4278 1413 c7 -3 16 -2 19 1 4 3 -2 6 -13 5 -11 0 -14 -3 -6 -6z"/>
<path d="M2932 1355 c0 -16 2 -22 5 -12 2 9 2 23 0 30 -3 6 -5 -1 -5 -18z"/>
<path d="M2192 1300 c0 -14 2 -19 5 -12 2 6 2 18 0 25 -3 6 -5 1 -5 -13z"/>
<path d="M2556 1215 c-33 -39 -42 -45 -76 -45 -58 0 -70 -18 -70 -104 0 -103
4 -106 162 -106 108 0 127 2 139 18 11 14 11 15 -1 5 -19 -18 -261 -18 -278
-1 -7 7 -12 41 -12 83 0 82 9 95 61 95 30 0 43 7 77 44 24 26 43 39 46 33 2
-7 5 -4 5 6 1 28 -14 20 -53 -28z"/>
<path d="M2614 1190 c1 -22 6 -25 41 -28 58 -5 65 -15 67 -96 l2 -71 3 69 c5
83 -10 106 -68 106 -31 0 -38 4 -42 23 -3 19 -4 19 -3 -3z"/>
<path d="M2566 1080 c-10 -27 -16 -54 -14 -60 1 -5 12 17 24 50 12 33 18 60
14 60 -3 0 -14 -22 -24 -50z"/>
<path d="M2503 1088 c-31 -15 -29 -24 10 -37 l32 -11 -25 20 c-20 15 -21 20
-8 20 9 0 20 5 23 10 8 13 -3 12 -32 -2z"/>
<path d="M2605 1090 c4 -6 14 -10 23 -10 13 0 12 -5 -8 -20 l-25 -20 33 11
c40 14 41 24 2 38 -18 6 -28 6 -25 1z"/>
<path d="M3481 1090 c0 -8 4 -24 9 -35 5 -13 9 -14 9 -5 0 8 -4 24 -9 35 -5
13 -9 14 -9 5z"/>
<path d="M3506 1005 c2 -16 13 -57 24 -90 11 -33 17 -46 14 -30 -2 17 -13 57
-24 90 -11 33 -17 47 -14 30z"/>
<path d="M1635 959 c-4 -6 -5 -12 -2 -15 2 -3 7 2 10 11 7 17 1 20 -8 4z"/>
<path d="M2002 825 c-17 -37 -14 -45 4 -12 9 16 14 31 11 33 -2 2 -9 -7 -15
-21z"/>
<path d="M1976 765 c-9 -26 -7 -32 5 -12 6 10 9 21 6 23 -2 3 -7 -2 -11 -11z"/>
<path d="M1951 699 c-6 -18 -9 -34 -7 -36 2 -2 9 10 15 28 6 18 9 34 7 36 -2
2 -9 -10 -15 -28z"/>
</g>
</svg>
